<?xml version="1.0" encoding="utf-8"?>
<!-- Generator: Adobe Illustrator 22.1.0, SVG Export Plug-In . SVG Version: 6.00 Build 0)  -->
<svg version="1.1" id="Layer_1" xmlns="http://www.w3.org/2000/svg" xmlns:xlink="http://www.w3.org/1999/xlink" x="0px" y="0px"
	 viewBox="0 0 477 477.1" style="enable-background:new 0 0 477 477.1;" xml:space="preserve">
<style type="text/css">
	.st0{fill:#E3B873;}
</style>
<g id="Layer_x0020_1">
	<path class="st0" d="M78.9,412.8c0.5,0.4,0.5,1.1,0.1,1.6c-0.4,0.5-1.1,0.5-1.6,0.1c-22.5-20.6-40.6-45.1-53.6-72
		c-13-26.9-21-56.3-23.2-86.7c-2.2-30.4,1.5-60.6,10.5-89.2c9-28.5,23.4-55.4,42.7-79C73.1,64,96.5,44.6,122.7,30
		C148.9,15.5,177.8,5.9,208,2c30.2-3.9,60.6-2,89.6,5.5c29,7.4,56.6,20.3,81.2,38.2c0.5,0.4,0.6,1.1,0.3,1.6
		c-0.4,0.5-1.1,0.6-1.6,0.3C353.1,29.7,325.8,16.9,297,9.6c-28.7-7.3-58.8-9.3-88.8-5.4c-29.9,3.9-58.6,13.4-84.5,27.8
		C97.9,46.4,74.7,65.6,55.6,89c-19.1,23.4-33.4,49.9-42.3,78.2c-8.9,28.3-12.6,58.2-10.4,88.3c2.2,30.1,10.1,59.2,23,85.9
		C38.7,368.1,56.7,392.4,78.9,412.8L78.9,412.8z"/>
	<path class="st0" d="M402.3,408.8c0.4-0.4,1.2-0.4,1.6,0c0.4,0.4,0.4,1.2,0,1.6c-19,18.3-40.8,33.2-64.4,44.2
		c-23.6,11-49,18.2-75.3,21c-26.3,2.8-52.6,1.3-78-4.4c-25.4-5.7-49.9-15.6-72.4-29.4c-0.5-0.3-0.7-1-0.4-1.5c0.3-0.5,1-0.7,1.5-0.4
		c22.3,13.7,46.6,23.5,71.7,29.2s51.3,7.2,77.3,4.4c26-2.8,51.2-9.9,74.6-20.8C361.8,441.7,383.4,427,402.3,408.8L402.3,408.8z"/>
	<path class="st0" d="M416.3,83c-0.4-0.5-0.4-1.2,0.1-1.6s1.2-0.4,1.6,0.1c5.6,6.5,10.9,13.2,15.9,20.2c4.9,7,9.5,14.3,13.6,21.8
		c0.3,0.5,0.1,1.2-0.4,1.5c-0.5,0.3-1.2,0.1-1.5-0.4c-4.1-7.5-8.6-14.7-13.5-21.6C427.2,96.1,421.9,89.4,416.3,83L416.3,83z"/>
	<path class="st0" d="M464.1,168.7c-0.2-0.6,0.2-1.2,0.7-1.4c0.6-0.2,1.2,0.2,1.4,0.7c3.6,11.7,6.4,23.7,8.1,35.8
		c1.8,12.1,2.6,24.3,2.5,36.6c0,0.6-0.5,1.1-1.1,1.1c-0.6,0-1.1-0.5-1.1-1.1c0.1-12.2-0.7-24.3-2.5-36.3
		C470.4,192.2,467.7,180.3,464.1,168.7L464.1,168.7z"/>
	<path class="st0" d="M468.4,292.9c0.1-0.6,0.7-1,1.3-0.8s1,0.7,0.8,1.3c-3,12.5-6.9,24.8-11.8,36.6c-4.9,11.8-10.8,23.3-17.6,34.2
		c-0.3,0.5-1,0.7-1.5,0.4c-0.5-0.3-0.7-1-0.4-1.5c6.7-10.8,12.5-22.2,17.4-33.9C461.6,317.4,465.5,305.3,468.4,292.9L468.4,292.9z"
		/>
</g>
</svg>
